<?xml version="1.0" encoding="utf-8"?>
<!-- Generator: Adobe Illustrator 21.0.2, SVG Export Plug-In . SVG Version: 6.00 Build 0)  -->
<svg version="1.1" id="Layer_1" xmlns="http://www.w3.org/2000/svg" xmlns:xlink="http://www.w3.org/1999/xlink" x="0px" y="0px"
	 viewBox="0 0 500 500" style="enable-background:new 0 0 500 500;" xml:space="preserve"
	 >
	 <defs>
    <linearGradient id="grad1" x1="0%" y1="0%" x2="100%" y2="0%">
      <stop offset="0%" style="stop-color:rgb(169,169,169);stop-opacity:1" />
      <stop offset="100%" style="stop-color:rgb(105,105,105);stop-opacity:1" />
    </linearGradient>
  </defs>
<path fill="url(#grad1)" d="M426.8,208.4c-3.1-10.6-8.2-20.4-12.3-30.5c-8.1-20-18.7-38.4-33.3-54.3c-34.8-37.8-78-56.7-129.2-57.8
	c-10.8,0.1-21.5,1.1-32.1,3.1c-30.6,5.8-57.8,18.7-81.6,38.8c-12.9,10.9-23.3,24-33.6,37.2C72.4,185.7,59,232.1,68.1,283.5
	c11.5,65.3,49.4,109.9,110.6,134.8c11.2,4.6,23.3,6.4,34.9,9.5c26.8,7.1,53.7,8.5,80.8,2.9c52.6-10.9,92.4-40,118.4-86.8
	C436.8,301.1,440.5,255.5,426.8,208.4z M408,180.7c4.8,9.2,6.9,19.5,8.7,29.7c5,28.3,3.2,56.2-6.1,83.5c-0.4,1.2-0.9,2.3-1.4,3.5
	c14.2-72.7-6.3-133.1-63-181c5.3,2.6,10.1,6,14.8,9.6C380.6,140.8,396.5,158.9,408,180.7z M407.1,255.1c0,35.3-10.1,67.4-30.5,96.2
	c-8.5,11.9-20.2,20.7-32.3,28.7c-23.7,15.7-49.9,24.9-78.3,27.3c-46.2,3.8-87-9.5-122.6-39c-15.7-13-28.7-28.5-38.3-46.6
	c-5.2-9.6-7.5-20.4-9.3-31c-8.3-48.2,1.5-92.5,31.1-131.6c27.4-36.2,63.8-57.8,108.9-64.7c17.2-2.6,34.4-2.5,51.5,0.3
	c8.4,1.4,16.2,5,23.8,8.7c51,25.4,82.2,66,93.4,121.9c0.7,3.7,1.3,7.4,1.6,11.1C406.8,242.6,407.4,248.8,407.1,255.1z M267.5,73.1
	c52.4,4.6,93.7,35.1,112,59.4c-5.1-4.2-10.2-8.5-15.5-12.5c-20.9-15.6-44.2-25.5-69.7-30.9c-10.6-2.2-21-5.5-31.8-6.9
	c-32.4-4.1-63.5,0.5-93.5,13.4c-1,0.4-1.9,1.3-3.7,0.6C197.2,77.6,231.1,69.9,267.5,73.1z M114.3,144.2
	c8.2-11.6,19.6-20.2,31.4-28.2c24.1-16.3,50.7-25.4,79.6-28.2c2.1-0.2,4.2,0,6.3,0c-42.7,7.9-78.1,28.4-105.7,61.9
	C98.3,183.3,85.7,222,86.6,266c-1.9-3.2-1.5-6.3-1.8-9.1C80.9,215.8,90.6,178,114.3,144.2z M88.7,327.8
	C68.9,286,66.6,243,81.9,199.2c-3.1,14-4.6,28.3-4.4,42.7c0.3,27.2,6.7,52.9,18.8,77.2c5,10.1,8.9,20.6,14.8,30.3
	c11.2,18.5,25.3,34.4,42.2,47.8c0.9,0.7,1.7,1.4,2.3,2.4C125.8,382.6,103.3,358.7,88.7,327.8z M223.1,422.1
	c-15.1-1.4-28.7-7.3-41.8-14.3c-18.3-9.7-34.1-22.6-47.5-38.4c58.1,48.2,122,57.7,191.8,29.4c-10.8,6.8-22.5,12-34.8,15.9
	C268.7,421.7,246.2,424.2,223.1,422.1z M268.9,427.1c8.6-1.9,17.2-3.8,25.6-6.7c34-11.4,61.7-31.5,83.8-59.8
	c8.5-10.9,17.5-21.5,24.4-33.6c15.3-27,23.2-55.9,23.2-87c0-0.6,0-1.2,0-2.9C441.3,327.4,370.3,423.5,268.9,427.1z"/>
</svg>
